<?xml version="1.0" standalone="no"?>
<!DOCTYPE svg PUBLIC "-//W3C//DTD SVG 20010904//EN"
 "http://www.w3.org/TR/2001/REC-SVG-20010904/DTD/svg10.dtd">
<svg version="1.0" xmlns="http://www.w3.org/2000/svg"
 width="408.000000pt" height="408.000000pt" viewBox="0 0 408.000000 408.000000"
 preserveAspectRatio="xMidYMid meet">
<metadata>
Created by potrace 1.11, written by Peter Selinger 2001-2013
</metadata>
<g transform="translate(0.000000,408.000000) scale(0.100000,-0.100000)"
fill="#000000" stroke="none">
<path d="M1830 4059 c-679 -70 -1290 -492 -1597 -1104 -148 -295 -216 -578
-216 -910 0 -558 214 -1061 614 -1451 333 -323 753 -518 1218 -564 525 -52
1075 117 1481 455 470 391 733 951 733 1560 0 558 -214 1061 -614 1451 -432
419 -1022 624 -1619 563z m105 -712 c32 -16 77 -40 98 -54 21 -13 84 -49 140
-79 112 -62 205 -130 231 -168 39 -61 48 -137 44 -380 -5 -219 -7 -239 -39
-376 -31 -136 -34 -156 -34 -320 0 -198 -6 -171 112 -495 111 -303 140 -417
149 -599 6 -123 -3 -154 -47 -170 -61 -21 -118 22 -173 134 -18 36 -66 155
-106 265 -103 285 -162 395 -211 395 -23 0 -54 -40 -75 -98 -9 -26 -40 -99
-69 -162 -29 -63 -65 -144 -80 -180 -51 -123 -129 -264 -167 -302 -63 -63
-107 -63 -140 3 -24 46 -23 91 6 190 13 46 27 100 31 119 12 57 160 498 196
584 28 68 31 79 17 87 -27 15 -218 170 -278 226 -79 73 -115 145 -105 210 6
41 15 56 64 103 84 82 239 200 297 227 47 21 209 61 343 83 63 11 81 24 81 59
0 14 9 63 20 109 28 115 26 141 -12 198 -25 37 -53 60 -113 95 -149 87 -299
193 -318 226 -16 28 -17 38 -7 67 18 54 42 55 145 3z m116 -309 c51 -15 114
-70 141 -122 44 -85 21 -208 -52 -269 -16 -14 -30 -31 -30 -37 0 -6 -6 -10
-12 -9 -7 2 -39 -3 -70 -11 -213 -50 -365 209 -222 379 57 68 156 96 245 69z"/>
<path d="M1729 2189 c-22 -24 -29 -41 -29 -73 0 -39 5 -46 92 -129 104 -100
106 -100 107 14 2 174 -89 275 -170 188z"/>
</g>
</svg>
